<?xml version="1.0" encoding="UTF-8" standalone="no"?>
<svg width="74px" height="66px" viewBox="0 0 74 66" version="1.1" xmlns="http://www.w3.org/2000/svg" xmlns:xlink="http://www.w3.org/1999/xlink">
    <!-- Generator: Sketch 41 (35326) - http://www.bohemiancoding.com/sketch -->
    <title>Page 1</title>
    <desc>Created with Sketch.</desc>
    <defs></defs>
    <g id="Page-1" stroke="none" stroke-width="1" fill="none" fill-rule="evenodd">
        <g id="Mobile-Landing-With-Properties" transform="translate(-26.000000, -108.000000)" fill="#EE3A39">
            <g id="Main" transform="translate(0.000000, 108.000000)">
                <g id="Surry-Hills">
                    <path d="M82.7907246,0 L58.9457005,16.1561353 L58.9457005,39.7105314 L45.1304348,32.2863768 L45.1304348,63.7055072 L43.9397101,63.7055072 L43.9397101,39.1215459 L29.9578744,46.6372947 L29.9578744,63.7055072 L26,63.7055072 L26,65.8218357 L29.9578744,65.8218357 L43.9397101,65.8218357 L100,65.8218357 L100,63.7055072 L95.7789372,63.7055072 L95.7789372,32.8544928 L76.1824155,22.5441546 L76.0436715,22.4541063 L65.7615459,17.2189372 L65.7615459,15.563285 L82.7907246,24.2295652 L82.7907246,0 Z M71.0736232,34.1615459 L72.4007729,34.1615459 L72.4007729,29.0195169 L71.0736232,29.0195169 L71.0736232,34.1615459 Z M68.4193237,34.1615459 L69.7464734,34.1615459 L69.7464734,29.0195169 L68.4193237,29.0195169 L68.4193237,34.1615459 Z M65.7646377,34.1615459 L67.0917874,34.1615459 L67.0917874,29.0195169 L65.7646377,29.0195169 L65.7646377,34.1615459 Z M77.8825121,30.1742995 L82.7891787,32.8119807 L82.7907246,32.8127536 L82.7907246,32.8123671 L89.8291787,36.5963285 L89.8291787,60.4490821 L77.8825121,60.4490821 L77.8825121,30.1742995 Z M71.0736232,40.4112077 L72.4007729,40.4112077 L72.4007729,35.2684058 L71.0736232,35.2684058 L71.0736232,40.4112077 Z M68.4193237,40.4112077 L69.7464734,40.4112077 L69.7464734,35.2684058 L68.4193237,35.2684058 L68.4193237,40.4112077 Z M65.7646377,40.4112077 L67.0917874,40.4112077 L67.0917874,35.2684058 L65.7646377,35.2684058 L65.7646377,40.4112077 Z M51.3035749,40.9553623 L58.9457005,45.0631884 L58.9457005,60.4490821 L51.3035749,60.4490821 L51.3035749,40.9553623 Z M71.0736232,48.0977778 L72.4007729,48.0977778 L72.4007729,42.9545894 L71.0736232,42.9545894 L71.0736232,48.0977778 Z M68.4193237,48.0977778 L69.7464734,48.0977778 L69.7464734,42.9545894 L68.4193237,42.9545894 L68.4193237,48.0977778 Z M65.7646377,48.0977778 L67.0917874,48.0977778 L67.0917874,42.9545894 L65.7646377,42.9545894 L65.7646377,48.0977778 Z M39.0535266,52.4398068 L40.3806763,52.4398068 L40.3806763,47.2954589 L39.0535266,47.2954589 L39.0535266,52.4398068 Z M36.3992271,52.4398068 L37.7259903,52.4398068 L37.7259903,47.2954589 L36.3992271,47.2954589 L36.3992271,52.4398068 Z M33.7449275,52.4398068 L35.0720773,52.4398068 L35.0720773,47.2954589 L33.7449275,47.2954589 L33.7449275,52.4398068 Z M71.0736232,54.3478261 L72.4007729,54.3478261 L72.4007729,49.2042512 L71.0736232,49.2042512 L71.0736232,54.3478261 Z M68.4193237,54.3478261 L69.7464734,54.3478261 L69.7464734,49.2042512 L68.4193237,49.2042512 L68.4193237,54.3478261 Z M65.7646377,54.3478261 L67.0917874,54.3478261 L67.0917874,49.2042512 L65.7646377,49.2042512 L65.7646377,54.3478261 Z M39.0535266,58.6886957 L40.3806763,58.6886957 L40.3806763,53.5447343 L39.0535266,53.5447343 L39.0535266,58.6886957 Z M36.3992271,58.6886957 L37.7259903,58.6886957 L37.7259903,53.5447343 L36.3992271,53.5447343 L36.3992271,58.6886957 Z M33.7449275,58.6886957 L35.0720773,58.6886957 L35.0720773,53.5447343 L33.7449275,53.5447343 L33.7449275,58.6886957 Z" id="Page-1"></path>
                </g>
            </g>
        </g>
    </g>
</svg>