<?xml version="1.0" encoding="UTF-8" standalone="no"?>
<svg width="107px" height="26px" viewBox="0 0 107 26" version="1.1" xmlns="http://www.w3.org/2000/svg" xmlns:xlink="http://www.w3.org/1999/xlink">
    <!-- Generator: Sketch 41 (35326) - http://www.bohemiancoding.com/sketch -->
    <title>Logo</title>
    <desc>Created with Sketch.</desc>
    <defs></defs>
    <g id="Page-1" stroke="none" stroke-width="1" fill="none" fill-rule="evenodd">
        <g id="Desktop" transform="translate(-126.000000, -18.000000)" fill="#FFFFFF">
            <g id="Header" transform="translate(1.000000, 17.000000)">
                <g id="Logo" transform="translate(125.000000, 1.000000)">
                    <path d="M8.18684783,25.4090909 L8.18684783,0.626363636 L12.3809783,0.626363636 L12.3809783,11.3690909 L24.7145652,11.3690909 L24.7145652,0.626363636 L28.9086957,0.626363636 L28.9086957,25.4090909 L24.7145652,25.4090909 L24.7145652,15.2690909 L12.3809783,15.2690909 L12.3809783,25.4090909 L8.18684783,25.4090909 Z M39.3229348,19.7718182 L36.8348913,25.4090909 L32.356413,25.4090909 L43.3038043,0.626363636 L47.7822826,0.626363636 L58.7296739,25.4090909 L54.2511957,25.4090909 L51.7631522,19.7718182 L39.3229348,19.7718182 Z M50.0570652,15.9072727 L45.5430435,5.69636364 L41.0290217,15.9072727 L50.0570652,15.9072727 Z M72.3783696,21.7218182 C74.3214228,21.7218182 75.8616247,21.0600066 76.9990217,19.7363636 C78.1364187,18.4127207 78.7051087,16.616375 78.7051087,14.3472727 L78.7051087,0.626363636 L82.8992391,0.626363636 L82.8992391,14.5245455 C82.8992391,18.0936542 81.9158794,20.841354 79.9491304,22.7677273 C77.9823815,24.6941005 75.4588198,25.6572727 72.3783696,25.6572727 C69.2979194,25.6572727 66.7743577,24.6941005 64.8076087,22.7677273 C62.8408597,20.841354 61.8575,18.0936542 61.8575,14.5245455 L61.8575,0.626363636 L66.0516304,0.626363636 L66.0516304,14.3472727 C66.0516304,16.616375 66.6203204,18.4127207 67.7577174,19.7363636 C68.8951144,21.0600066 70.4353164,21.7218182 72.3783696,21.7218182 L72.3783696,21.7218182 Z M93.9888043,4.63272727 C93.2068439,5.12909339 92.8158696,5.87954043 92.8158696,6.88409091 C92.8158696,7.88864139 93.2068439,8.65681552 93.9888043,9.18863636 C94.7707648,9.7204572 96.4353677,10.2936333 98.982663,10.9081818 C101.529958,11.5227303 103.449287,12.385449 104.740707,13.4963636 C106.032126,14.6072783 106.677826,16.2440801 106.677826,18.4068182 C106.677826,20.5695563 105.860334,22.3245387 104.225326,23.6718182 C102.590318,25.0190976 100.445883,25.6927273 97.7919565,25.6927273 C93.9058501,25.6927273 90.4581672,24.3572861 87.4488043,21.6863636 L90.0790217,18.5309091 C92.5907734,20.7054654 95.1972691,21.7927273 97.898587,21.7927273 C99.2492459,21.7927273 100.321463,21.5031847 101.115272,20.9240909 C101.90908,20.3449971 102.305978,19.576823 102.305978,18.6195455 C102.305978,17.6622679 101.932775,16.9177299 101.186359,16.3859091 C100.439942,15.8540883 99.1544656,15.3695476 97.3298913,14.9322727 C95.505317,14.4949978 94.1191352,14.0931837 93.1713043,13.7268182 C92.2234735,13.3604527 91.3822863,12.8818211 90.6477174,12.2909091 C89.1785796,11.1799944 88.4440217,9.47819328 88.4440217,7.18545455 C88.4440217,4.89271581 89.2792851,3.1259153 90.949837,1.885 C92.6203888,0.644084705 94.6878138,0.0236363636 97.1521739,0.0236363636 C98.7397905,0.0236363636 100.315536,0.283633764 101.879457,0.803636364 C103.443377,1.32363896 104.794016,2.05635891 105.931413,3.00181818 L103.692174,6.15727273 C102.957605,5.49545124 101.962398,4.95182031 100.706522,4.52636364 C99.4506459,4.10090696 98.2125604,3.88818182 96.9922283,3.88818182 C95.7718961,3.88818182 94.7707648,4.13636115 93.9888043,4.63272727 L93.9888043,4.63272727 Z" id="HAUS"></path>
                    <rect id="Rectangle" x="0" y="11.2272727" width="10.0706522" height="4.43181818"></rect>
                </g>
            </g>
        </g>
    </g>
</svg>